<svg width="391" height="214" viewBox="0 0 391 214" fill="none" xmlns="http://www.w3.org/2000/svg">
<path d="M1.656 75.184H2.772V88H1.656V75.184ZM10.1177 78.766C12.2897 78.766 13.3757 79.93 13.3757 82.258V88H12.2777V82.33C12.2777 81.43 12.0917 80.77 11.7197 80.35C11.3597 79.93 10.7897 79.72 10.0097 79.72C9.10969 79.72 8.38369 79.996 7.83169 80.548C7.27969 81.1 7.00369 81.844 7.00369 82.78V88H5.92369V81.484C5.92369 80.548 5.87569 79.714 5.77969 78.982H6.82369L6.96769 80.638C7.24369 80.026 7.65769 79.564 8.20969 79.252C8.76169 78.928 9.39769 78.766 10.1177 78.766ZM23.9799 74.752V88H22.8819V86.272C22.6179 86.872 22.2159 87.334 21.6759 87.658C21.1479 87.97 20.5119 88.126 19.7679 88.126C18.9759 88.126 18.2739 87.934 17.6619 87.55C17.0619 87.154 16.5939 86.602 16.2579 85.894C15.9219 85.174 15.7539 84.346 15.7539 83.41C15.7539 82.474 15.9159 81.658 16.2399 80.962C16.5759 80.254 17.0439 79.714 17.6439 79.342C18.2559 78.958 18.9639 78.766 19.7679 78.766C20.4999 78.766 21.1299 78.922 21.6579 79.234C22.1979 79.546 22.6059 80.002 22.8819 80.602V74.752H23.9799ZM19.9119 87.154C20.8599 87.154 21.5919 86.83 22.1079 86.182C22.6239 85.534 22.8819 84.622 22.8819 83.446C22.8819 82.27 22.6239 81.358 22.1079 80.71C21.5919 80.05 20.8659 79.72 19.9299 79.72C18.9699 79.72 18.2259 80.044 17.6979 80.692C17.1699 81.34 16.9059 82.246 16.9059 83.41C16.9059 84.586 17.1699 85.504 17.6979 86.164C18.2259 86.824 18.9639 87.154 19.9119 87.154ZM30.5467 88.126C29.7187 88.126 28.9867 87.934 28.3507 87.55C27.7267 87.166 27.2407 86.62 26.8927 85.912C26.5567 85.204 26.3887 84.382 26.3887 83.446C26.3887 82.51 26.5567 81.688 26.8927 80.98C27.2407 80.272 27.7267 79.726 28.3507 79.342C28.9867 78.958 29.7187 78.766 30.5467 78.766C31.3627 78.766 32.0827 78.958 32.7067 79.342C33.3307 79.726 33.8107 80.272 34.1467 80.98C34.4947 81.688 34.6687 82.51 34.6687 83.446C34.6687 84.382 34.4947 85.204 34.1467 85.912C33.8107 86.62 33.3307 87.166 32.7067 87.55C32.0827 87.934 31.3627 88.126 30.5467 88.126ZM30.5287 87.154C31.4887 87.154 32.2267 86.836 32.7427 86.2C33.2707 85.552 33.5347 84.634 33.5347 83.446C33.5347 82.27 33.2707 81.358 32.7427 80.71C32.2147 80.05 31.4827 79.72 30.5467 79.72C29.5987 79.72 28.8607 80.05 28.3327 80.71C27.8047 81.358 27.5407 82.27 27.5407 83.446C27.5407 84.646 27.7987 85.564 28.3147 86.2C28.8307 86.836 29.5687 87.154 30.5287 87.154ZM41.2661 78.766C43.4381 78.766 44.5241 79.93 44.5241 82.258V88H43.4261V82.33C43.4261 81.43 43.2401 80.77 42.8681 80.35C42.5081 79.93 41.9381 79.72 41.1581 79.72C40.2581 79.72 39.5321 79.996 38.9801 80.548C38.4281 81.1 38.1521 81.844 38.1521 82.78V88H37.0721V81.484C37.0721 80.548 37.0241 79.714 36.9281 78.982H37.9721L38.1161 80.638C38.3921 80.026 38.8061 79.564 39.3581 79.252C39.9101 78.928 40.5461 78.766 41.2661 78.766ZM48.0544 83.356V83.41C48.0544 84.622 48.3304 85.552 48.8824 86.2C49.4464 86.836 50.2624 87.154 51.3304 87.154C52.4104 87.154 53.4004 86.782 54.3004 86.038L54.7324 86.902C54.3364 87.274 53.8324 87.574 53.2204 87.802C52.6084 88.018 51.9784 88.126 51.3304 88.126C49.9624 88.126 48.8824 87.712 48.0904 86.884C47.2984 86.056 46.9024 84.916 46.9024 83.464C46.9024 82.54 47.0764 81.724 47.4244 81.016C47.7844 80.296 48.2824 79.744 48.9184 79.36C49.5544 78.964 50.2864 78.766 51.1144 78.766C52.3024 78.766 53.2264 79.15 53.8864 79.918C54.5584 80.686 54.8944 81.754 54.8944 83.122V83.356H48.0544ZM51.1144 79.666C50.2864 79.666 49.6144 79.918 49.0984 80.422C48.5824 80.914 48.2584 81.61 48.1264 82.51H53.8504C53.7784 81.586 53.5084 80.884 53.0404 80.404C52.5724 79.912 51.9304 79.666 51.1144 79.666ZM60.1858 88.126C58.7218 88.126 57.5638 87.724 56.7118 86.92L57.1078 86.074C57.5878 86.47 58.0678 86.752 58.5478 86.92C59.0398 87.088 59.6038 87.172 60.2398 87.172C60.9838 87.172 61.5478 87.046 61.9318 86.794C62.3278 86.53 62.5258 86.152 62.5258 85.66C62.5258 85.252 62.3938 84.934 62.1298 84.706C61.8778 84.466 61.4578 84.274 60.8698 84.13L59.3398 83.788C58.6198 83.62 58.0498 83.32 57.6298 82.888C57.2218 82.456 57.0178 81.952 57.0178 81.376C57.0178 80.584 57.3178 79.954 57.9178 79.486C58.5298 79.006 59.3398 78.766 60.3478 78.766C60.9838 78.766 61.5718 78.868 62.1118 79.072C62.6638 79.276 63.1198 79.57 63.4798 79.954L63.0658 80.8C62.2378 80.08 61.3318 79.72 60.3478 79.72C59.6518 79.72 59.1118 79.858 58.7278 80.134C58.3438 80.41 58.1518 80.794 58.1518 81.286C58.1518 81.694 58.2718 82.024 58.5118 82.276C58.7638 82.528 59.1478 82.714 59.6638 82.834L61.2118 83.212C62.8318 83.572 63.6418 84.37 63.6418 85.606C63.6418 86.362 63.3298 86.974 62.7058 87.442C62.0818 87.898 61.2418 88.126 60.1858 88.126ZM66.1463 78.982H67.2263V88H66.1463V78.982ZM67.4423 75.256V76.66H65.9843V75.256H67.4423ZM77.892 78.982V88H76.794V86.272C76.53 86.872 76.128 87.334 75.588 87.658C75.06 87.97 74.424 88.126 73.68 88.126C72.876 88.126 72.168 87.94 71.556 87.568C70.956 87.184 70.488 86.644 70.152 85.948C69.828 85.24 69.666 84.418 69.666 83.482C69.666 82.546 69.834 81.724 70.17 81.016C70.506 80.296 70.974 79.744 71.574 79.36C72.186 78.964 72.888 78.766 73.68 78.766C74.412 78.766 75.042 78.922 75.57 79.234C76.11 79.546 76.518 80.002 76.794 80.602V78.982H77.892ZM73.842 87.154C74.778 87.154 75.504 86.83 76.02 86.182C76.536 85.534 76.794 84.622 76.794 83.446C76.794 82.258 76.536 81.34 76.02 80.692C75.504 80.044 74.772 79.72 73.824 79.72C72.876 79.72 72.138 80.056 71.61 80.728C71.082 81.388 70.818 82.306 70.818 83.482C70.818 84.646 71.082 85.552 71.61 86.2C72.138 86.836 72.882 87.154 73.842 87.154ZM5.634 126.144C4.626 126.144 3.732 126.012 2.952 125.748C2.184 125.472 1.5 125.046 0.9 124.47L1.368 123.588C2.004 124.152 2.646 124.554 3.294 124.794C3.954 125.034 4.734 125.154 5.634 125.154C6.714 125.154 7.554 124.932 8.154 124.488C8.754 124.044 9.054 123.42 9.054 122.616C9.054 122.148 8.904 121.77 8.604 121.482C8.316 121.182 7.944 120.948 7.488 120.78C7.044 120.612 6.45 120.444 5.706 120.276C4.722 120.06 3.918 119.838 3.294 119.61C2.682 119.37 2.166 119.016 1.746 118.548C1.326 118.08 1.116 117.456 1.116 116.676C1.116 115.956 1.302 115.32 1.674 114.768C2.046 114.216 2.574 113.79 3.258 113.49C3.954 113.19 4.758 113.04 5.67 113.04C6.546 113.04 7.356 113.184 8.1 113.472C8.844 113.748 9.486 114.162 10.026 114.714L9.558 115.596C8.958 115.056 8.346 114.66 7.722 114.408C7.098 114.156 6.414 114.03 5.67 114.03C4.59 114.03 3.744 114.264 3.132 114.732C2.532 115.2 2.232 115.842 2.232 116.658C2.232 117.366 2.496 117.894 3.024 118.242C3.552 118.59 4.326 118.884 5.346 119.124L5.868 119.25C6.828 119.478 7.59 119.7 8.154 119.916C8.718 120.132 9.198 120.456 9.594 120.888C9.99 121.32 10.188 121.896 10.188 122.616C10.188 123.312 10.002 123.93 9.63 124.47C9.258 124.998 8.724 125.412 8.028 125.712C7.344 126 6.546 126.144 5.634 126.144ZM12.5331 116.982H13.6131V126H12.5331V116.982ZM13.8291 113.256V114.66H12.3711V113.256H13.8291ZM20.8228 116.766C22.9948 116.766 24.0808 117.93 24.0808 120.258V126H22.9828V120.33C22.9828 119.43 22.7968 118.77 22.4248 118.35C22.0648 117.93 21.4948 117.72 20.7148 117.72C19.8148 117.72 19.0888 117.996 18.5368 118.548C17.9848 119.1 17.7088 119.844 17.7088 120.78V126H16.6288V119.484C16.6288 118.548 16.5808 117.714 16.4848 116.982H17.5288L17.6728 118.638C17.9488 118.026 18.3628 117.564 18.9148 117.252C19.4668 116.928 20.1028 116.766 20.8228 116.766ZM34.757 116.982V126.036C34.757 127.344 34.433 128.334 33.785 129.006C33.137 129.678 32.183 130.014 30.923 130.014C29.579 130.014 28.409 129.69 27.413 129.042L27.629 128.088C28.217 128.436 28.757 128.682 29.249 128.826C29.741 128.97 30.305 129.042 30.941 129.042C31.841 129.042 32.519 128.796 32.975 128.304C33.443 127.812 33.677 127.092 33.677 126.144V123.822C33.401 124.434 32.993 124.908 32.453 125.244C31.913 125.568 31.265 125.73 30.509 125.73C29.717 125.73 29.015 125.544 28.403 125.172C27.791 124.788 27.311 124.26 26.963 123.588C26.627 122.904 26.459 122.124 26.459 121.248C26.459 120.36 26.627 119.58 26.963 118.908C27.311 118.224 27.791 117.696 28.403 117.324C29.015 116.952 29.717 116.766 30.509 116.766C31.265 116.766 31.907 116.922 32.435 117.234C32.975 117.546 33.383 118.002 33.659 118.602V116.982H34.757ZM30.653 124.74C31.589 124.74 32.321 124.428 32.849 123.804C33.389 123.18 33.659 122.328 33.659 121.248C33.659 120.156 33.389 119.298 32.849 118.674C32.321 118.038 31.589 117.72 30.653 117.72C29.705 117.72 28.961 118.038 28.421 118.674C27.881 119.298 27.611 120.156 27.611 121.248C27.611 122.34 27.881 123.198 28.421 123.822C28.961 124.434 29.705 124.74 30.653 124.74ZM45.3901 116.982V126H44.2921V124.272C44.0281 124.872 43.6261 125.334 43.0861 125.658C42.5581 125.97 41.9221 126.126 41.1781 126.126C40.3741 126.126 39.6661 125.94 39.0541 125.568C38.4541 125.184 37.9861 124.644 37.6501 123.948C37.3261 123.24 37.1641 122.418 37.1641 121.482C37.1641 120.546 37.3321 119.724 37.6681 119.016C38.0041 118.296 38.4721 117.744 39.0721 117.36C39.6841 116.964 40.3861 116.766 41.1781 116.766C41.9101 116.766 42.5401 116.922 43.0681 117.234C43.6081 117.546 44.0161 118.002 44.2921 118.602V116.982H45.3901ZM41.3401 125.154C42.2761 125.154 43.0021 124.83 43.5181 124.182C44.0341 123.534 44.2921 122.622 44.2921 121.446C44.2921 120.258 44.0341 119.34 43.5181 118.692C43.0021 118.044 42.2701 117.72 41.3221 117.72C40.3741 117.72 39.6361 118.056 39.1081 118.728C38.5801 119.388 38.3161 120.306 38.3161 121.482C38.3161 122.646 38.5801 123.552 39.1081 124.2C39.6361 124.836 40.3801 125.154 41.3401 125.154ZM52.5869 116.766C53.3789 116.766 54.0749 116.964 54.6749 117.36C55.2869 117.744 55.7609 118.296 56.0969 119.016C56.4329 119.724 56.6009 120.546 56.6009 121.482C56.6009 122.418 56.4329 123.234 56.0969 123.93C55.7729 124.626 55.3049 125.166 54.6929 125.55C54.0809 125.934 53.3789 126.126 52.5869 126.126C51.8309 126.126 51.1829 125.964 50.6429 125.64C50.1149 125.304 49.7189 124.824 49.4549 124.2V129.888H48.3749V119.484C48.3749 118.548 48.3269 117.714 48.2309 116.982H49.2749L49.4189 118.746C49.6829 118.11 50.0849 117.624 50.6249 117.288C51.1769 116.94 51.8309 116.766 52.5869 116.766ZM52.4429 125.154C53.3909 125.154 54.1289 124.836 54.6569 124.2C55.1849 123.552 55.4489 122.646 55.4489 121.482C55.4489 120.306 55.1849 119.388 54.6569 118.728C54.1289 118.056 53.3969 117.72 52.4609 117.72C51.5009 117.72 50.7629 118.044 50.2469 118.692C49.7309 119.34 49.4729 120.258 49.4729 121.446C49.4729 122.622 49.7309 123.534 50.2469 124.182C50.7629 124.83 51.4949 125.154 52.4429 125.154ZM62.5916 126.126C61.7636 126.126 61.0316 125.934 60.3956 125.55C59.7716 125.166 59.2856 124.62 58.9376 123.912C58.6016 123.204 58.4336 122.382 58.4336 121.446C58.4336 120.51 58.6016 119.688 58.9376 118.98C59.2856 118.272 59.7716 117.726 60.3956 117.342C61.0316 116.958 61.7636 116.766 62.5916 116.766C63.4076 116.766 64.1276 116.958 64.7516 117.342C65.3756 117.726 65.8556 118.272 66.1916 118.98C66.5396 119.688 66.7136 120.51 66.7136 121.446C66.7136 122.382 66.5396 123.204 66.1916 123.912C65.8556 124.62 65.3756 125.166 64.7516 125.55C64.1276 125.934 63.4076 126.126 62.5916 126.126ZM62.5736 125.154C63.5336 125.154 64.2716 124.836 64.7876 124.2C65.3156 123.552 65.5796 122.634 65.5796 121.446C65.5796 120.27 65.3156 119.358 64.7876 118.71C64.2596 118.05 63.5276 117.72 62.5916 117.72C61.6436 117.72 60.9056 118.05 60.3776 118.71C59.8496 119.358 59.5856 120.27 59.5856 121.446C59.5856 122.646 59.8436 123.564 60.3596 124.2C60.8756 124.836 61.6136 125.154 62.5736 125.154ZM73.005 116.766C73.305 116.766 73.569 116.79 73.797 116.838L73.743 117.828C73.515 117.78 73.239 117.756 72.915 117.756C72.003 117.756 71.319 118.05 70.863 118.638C70.419 119.214 70.197 119.904 70.197 120.708V126H69.117V119.484C69.117 118.548 69.069 117.714 68.973 116.982H70.017L70.161 118.656C70.389 118.044 70.755 117.576 71.259 117.252C71.775 116.928 72.357 116.766 73.005 116.766ZM75.7927 121.356V121.41C75.7927 122.622 76.0687 123.552 76.6207 124.2C77.1847 124.836 78.0007 125.154 79.0687 125.154C80.1487 125.154 81.1387 124.782 82.0387 124.038L82.4707 124.902C82.0747 125.274 81.5707 125.574 80.9587 125.802C80.3467 126.018 79.7167 126.126 79.0687 126.126C77.7007 126.126 76.6207 125.712 75.8287 124.884C75.0367 124.056 74.6407 122.916 74.6407 121.464C74.6407 120.54 74.8147 119.724 75.1627 119.016C75.5227 118.296 76.0207 117.744 76.6567 117.36C77.2927 116.964 78.0247 116.766 78.8527 116.766C80.0407 116.766 80.9647 117.15 81.6247 117.918C82.2967 118.686 82.6327 119.754 82.6327 121.122V121.356H75.7927ZM78.8527 117.666C78.0247 117.666 77.3527 117.918 76.8367 118.422C76.3207 118.914 75.9967 119.61 75.8647 120.51H81.5887C81.5167 119.586 81.2467 118.884 80.7787 118.404C80.3107 117.912 79.6687 117.666 78.8527 117.666ZM12.06 151.184V164H10.944V157.988H2.772V164H1.656V151.184H2.772V156.998H10.944V151.184H12.06ZM18.7869 164.126C17.9589 164.126 17.2269 163.934 16.5909 163.55C15.9669 163.166 15.4809 162.62 15.1329 161.912C14.7969 161.204 14.6289 160.382 14.6289 159.446C14.6289 158.51 14.7969 157.688 15.1329 156.98C15.4809 156.272 15.9669 155.726 16.5909 155.342C17.2269 154.958 17.9589 154.766 18.7869 154.766C19.6029 154.766 20.3229 154.958 20.9469 155.342C21.5709 155.726 22.0509 156.272 22.3869 156.98C22.7349 157.688 22.9089 158.51 22.9089 159.446C22.9089 160.382 22.7349 161.204 22.3869 161.912C22.0509 162.62 21.5709 163.166 20.9469 163.55C20.3229 163.934 19.6029 164.126 18.7869 164.126ZM18.7689 163.154C19.7289 163.154 20.4669 162.836 20.9829 162.2C21.5109 161.552 21.7749 160.634 21.7749 159.446C21.7749 158.27 21.5109 157.358 20.9829 156.71C20.4549 156.05 19.7229 155.72 18.7869 155.72C17.8389 155.72 17.1009 156.05 16.5729 156.71C16.0449 157.358 15.7809 158.27 15.7809 159.446C15.7809 160.646 16.0389 161.564 16.5549 162.2C17.0709 162.836 17.8089 163.154 18.7689 163.154ZM29.5064 154.766C31.6784 154.766 32.7644 155.93 32.7644 158.258V164H31.6664V158.33C31.6664 157.43 31.4804 156.77 31.1084 156.35C30.7484 155.93 30.1784 155.72 29.3984 155.72C28.4984 155.72 27.7724 155.996 27.2204 156.548C26.6684 157.1 26.3924 157.844 26.3924 158.78V164H25.3124V157.484C25.3124 156.548 25.2644 155.714 25.1684 154.982H26.2124L26.3564 156.638C26.6324 156.026 27.0464 155.564 27.5984 155.252C28.1504 154.928 28.7864 154.766 29.5064 154.766ZM43.4406 154.982V164.036C43.4406 165.344 43.1166 166.334 42.4686 167.006C41.8206 167.678 40.8666 168.014 39.6066 168.014C38.2626 168.014 37.0926 167.69 36.0966 167.042L36.3126 166.088C36.9006 166.436 37.4406 166.682 37.9326 166.826C38.4246 166.97 38.9886 167.042 39.6246 167.042C40.5246 167.042 41.2026 166.796 41.6586 166.304C42.1266 165.812 42.3606 165.092 42.3606 164.144V161.822C42.0846 162.434 41.6766 162.908 41.1366 163.244C40.5966 163.568 39.9486 163.73 39.1926 163.73C38.4006 163.73 37.6986 163.544 37.0866 163.172C36.4746 162.788 35.9946 162.26 35.6466 161.588C35.3106 160.904 35.1426 160.124 35.1426 159.248C35.1426 158.36 35.3106 157.58 35.6466 156.908C35.9946 156.224 36.4746 155.696 37.0866 155.324C37.6986 154.952 38.4006 154.766 39.1926 154.766C39.9486 154.766 40.5906 154.922 41.1186 155.234C41.6586 155.546 42.0666 156.002 42.3426 156.602V154.982H43.4406ZM39.3366 162.74C40.2726 162.74 41.0046 162.428 41.5326 161.804C42.0726 161.18 42.3426 160.328 42.3426 159.248C42.3426 158.156 42.0726 157.298 41.5326 156.674C41.0046 156.038 40.2726 155.72 39.3366 155.72C38.3886 155.72 37.6446 156.038 37.1046 156.674C36.5646 157.298 36.2946 158.156 36.2946 159.248C36.2946 160.34 36.5646 161.198 37.1046 161.822C37.6446 162.434 38.3886 162.74 39.3366 162.74ZM52.4717 164L47.5037 159.608V164H46.4237V150.752H47.5037V159.176L52.0397 154.982H53.4617L48.7457 159.32L53.9657 164H52.4717ZM58.7948 164.126C57.9668 164.126 57.2348 163.934 56.5988 163.55C55.9748 163.166 55.4888 162.62 55.1408 161.912C54.8048 161.204 54.6368 160.382 54.6368 159.446C54.6368 158.51 54.8048 157.688 55.1408 156.98C55.4888 156.272 55.9748 155.726 56.5988 155.342C57.2348 154.958 57.9668 154.766 58.7948 154.766C59.6108 154.766 60.3308 154.958 60.9548 155.342C61.5788 155.726 62.0588 156.272 62.3948 156.98C62.7428 157.688 62.9168 158.51 62.9168 159.446C62.9168 160.382 62.7428 161.204 62.3948 161.912C62.0588 162.62 61.5788 163.166 60.9548 163.55C60.3308 163.934 59.6108 164.126 58.7948 164.126ZM58.7768 163.154C59.7368 163.154 60.4748 162.836 60.9908 162.2C61.5188 161.552 61.7828 160.634 61.7828 159.446C61.7828 158.27 61.5188 157.358 60.9908 156.71C60.4628 156.05 59.7308 155.72 58.7948 155.72C57.8468 155.72 57.1088 156.05 56.5808 156.71C56.0528 157.358 55.7888 158.27 55.7888 159.446C55.7888 160.646 56.0468 161.564 56.5628 162.2C57.0788 162.836 57.8168 163.154 58.7768 163.154ZM69.5142 154.766C71.6862 154.766 72.7722 155.93 72.7722 158.258V164H71.6742V158.33C71.6742 157.43 71.4882 156.77 71.1162 156.35C70.7562 155.93 70.1862 155.72 69.4062 155.72C68.5062 155.72 67.7802 155.996 67.2282 156.548C66.6762 157.1 66.4002 157.844 66.4002 158.78V164H65.3202V157.484C65.3202 156.548 65.2722 155.714 65.1762 154.982H66.2202L66.3642 156.638C66.6402 156.026 67.0542 155.564 67.6062 155.252C68.1582 154.928 68.7942 154.766 69.5142 154.766ZM83.4484 154.982V164.036C83.4484 165.344 83.1244 166.334 82.4764 167.006C81.8284 167.678 80.8744 168.014 79.6144 168.014C78.2704 168.014 77.1004 167.69 76.1044 167.042L76.3204 166.088C76.9084 166.436 77.4484 166.682 77.9404 166.826C78.4324 166.97 78.9964 167.042 79.6324 167.042C80.5324 167.042 81.2104 166.796 81.6664 166.304C82.1344 165.812 82.3684 165.092 82.3684 164.144V161.822C82.0924 162.434 81.6844 162.908 81.1444 163.244C80.6044 163.568 79.9564 163.73 79.2004 163.73C78.4084 163.73 77.7064 163.544 77.0944 163.172C76.4824 162.788 76.0024 162.26 75.6544 161.588C75.3184 160.904 75.1504 160.124 75.1504 159.248C75.1504 158.36 75.3184 157.58 75.6544 156.908C76.0024 156.224 76.4824 155.696 77.0944 155.324C77.7064 154.952 78.4084 154.766 79.2004 154.766C79.9564 154.766 80.5984 154.922 81.1264 155.234C81.6664 155.546 82.0744 156.002 82.3504 156.602V154.982H83.4484ZM79.3444 162.74C80.2804 162.74 81.0124 162.428 81.5404 161.804C82.0804 161.18 82.3504 160.328 82.3504 159.248C82.3504 158.156 82.0804 157.298 81.5404 156.674C81.0124 156.038 80.2804 155.72 79.3444 155.72C78.3964 155.72 77.6524 156.038 77.1124 156.674C76.5724 157.298 76.3024 158.156 76.3024 159.248C76.3024 160.34 76.5724 161.198 77.1124 161.822C77.6524 162.434 78.3964 162.74 79.3444 162.74ZM6.984 202.144C5.796 202.144 4.764 201.886 3.888 201.37C3.012 200.842 2.34 200.086 1.872 199.102C1.404 198.106 1.17 196.93 1.17 195.574C1.17 194.23 1.404 193.066 1.872 192.082C2.34 191.098 3.012 190.348 3.888 189.832C4.764 189.304 5.796 189.04 6.984 189.04C7.872 189.04 8.682 189.184 9.414 189.472C10.158 189.748 10.8 190.162 11.34 190.714L10.872 191.596C10.26 191.044 9.648 190.648 9.036 190.408C8.424 190.156 7.74 190.03 6.984 190.03C5.508 190.03 4.362 190.516 3.546 191.488C2.73 192.448 2.322 193.81 2.322 195.574C2.322 197.35 2.724 198.724 3.528 199.696C4.344 200.668 5.496 201.154 6.984 201.154C7.74 201.154 8.424 201.034 9.036 200.794C9.648 200.542 10.26 200.14 10.872 199.588L11.34 200.47C10.8 201.022 10.158 201.442 9.414 201.73C8.682 202.006 7.872 202.144 6.984 202.144ZM21.2729 192.982V202H20.1749V200.272C19.9109 200.872 19.5089 201.334 18.9689 201.658C18.4409 201.97 17.8049 202.126 17.0609 202.126C16.2569 202.126 15.5489 201.94 14.9369 201.568C14.3369 201.184 13.8689 200.644 13.5329 199.948C13.2089 199.24 13.0469 198.418 13.0469 197.482C13.0469 196.546 13.2149 195.724 13.5509 195.016C13.8869 194.296 14.3549 193.744 14.9549 193.36C15.5669 192.964 16.2689 192.766 17.0609 192.766C17.7929 192.766 18.4229 192.922 18.9509 193.234C19.4909 193.546 19.8989 194.002 20.1749 194.602V192.982H21.2729ZM17.2229 201.154C18.1589 201.154 18.8849 200.83 19.4009 200.182C19.9169 199.534 20.1749 198.622 20.1749 197.446C20.1749 196.258 19.9169 195.34 19.4009 194.692C18.8849 194.044 18.1529 193.72 17.2049 193.72C16.2569 193.72 15.5189 194.056 14.9909 194.728C14.4629 195.388 14.1989 196.306 14.1989 197.482C14.1989 198.646 14.4629 199.552 14.9909 200.2C15.5189 200.836 16.2629 201.154 17.2229 201.154ZM28.4517 192.766C30.6237 192.766 31.7097 193.93 31.7097 196.258V202H30.6117V196.33C30.6117 195.43 30.4257 194.77 30.0537 194.35C29.6937 193.93 29.1237 193.72 28.3437 193.72C27.4437 193.72 26.7177 193.996 26.1657 194.548C25.6137 195.1 25.3377 195.844 25.3377 196.78V202H24.2577V195.484C24.2577 194.548 24.2097 193.714 24.1137 192.982H25.1577L25.3017 194.638C25.5777 194.026 25.9917 193.564 26.5437 193.252C27.0957 192.928 27.7317 192.766 28.4517 192.766ZM42.3139 192.982V202H41.2159V200.272C40.9519 200.872 40.5499 201.334 40.0099 201.658C39.4819 201.97 38.8459 202.126 38.1019 202.126C37.2979 202.126 36.5899 201.94 35.9779 201.568C35.3779 201.184 34.9099 200.644 34.5739 199.948C34.2499 199.24 34.0879 198.418 34.0879 197.482C34.0879 196.546 34.2559 195.724 34.5919 195.016C34.9279 194.296 35.3959 193.744 35.9959 193.36C36.6079 192.964 37.3099 192.766 38.1019 192.766C38.8339 192.766 39.4639 192.922 39.9919 193.234C40.5319 193.546 40.9399 194.002 41.2159 194.602V192.982H42.3139ZM38.2639 201.154C39.1999 201.154 39.9259 200.83 40.4419 200.182C40.9579 199.534 41.2159 198.622 41.2159 197.446C41.2159 196.258 40.9579 195.34 40.4419 194.692C39.9259 194.044 39.1939 193.72 38.2459 193.72C37.2979 193.72 36.5599 194.056 36.0319 194.728C35.5039 195.388 35.2399 196.306 35.2399 197.482C35.2399 198.646 35.5039 199.552 36.0319 200.2C36.5599 200.836 37.3039 201.154 38.2639 201.154ZM52.9487 188.752V202H51.8507V200.272C51.5867 200.872 51.1847 201.334 50.6447 201.658C50.1167 201.97 49.4807 202.126 48.7367 202.126C47.9447 202.126 47.2427 201.934 46.6307 201.55C46.0307 201.154 45.5627 200.602 45.2267 199.894C44.8907 199.174 44.7227 198.346 44.7227 197.41C44.7227 196.474 44.8847 195.658 45.2087 194.962C45.5447 194.254 46.0127 193.714 46.6127 193.342C47.2247 192.958 47.9327 192.766 48.7367 192.766C49.4687 192.766 50.0987 192.922 50.6267 193.234C51.1667 193.546 51.5747 194.002 51.8507 194.602V188.752H52.9487ZM48.8807 201.154C49.8287 201.154 50.5607 200.83 51.0767 200.182C51.5927 199.534 51.8507 198.622 51.8507 197.446C51.8507 196.27 51.5927 195.358 51.0767 194.71C50.5607 194.05 49.8347 193.72 48.8987 193.72C47.9387 193.72 47.1947 194.044 46.6667 194.692C46.1387 195.34 45.8747 196.246 45.8747 197.41C45.8747 198.586 46.1387 199.504 46.6667 200.164C47.1947 200.824 47.9327 201.154 48.8807 201.154ZM63.5835 192.982V202H62.4855V200.272C62.2215 200.872 61.8195 201.334 61.2795 201.658C60.7515 201.97 60.1155 202.126 59.3715 202.126C58.5675 202.126 57.8595 201.94 57.2475 201.568C56.6475 201.184 56.1795 200.644 55.8435 199.948C55.5195 199.24 55.3575 198.418 55.3575 197.482C55.3575 196.546 55.5255 195.724 55.8615 195.016C56.1975 194.296 56.6655 193.744 57.2655 193.36C57.8775 192.964 58.5795 192.766 59.3715 192.766C60.1035 192.766 60.7335 192.922 61.2615 193.234C61.8015 193.546 62.2095 194.002 62.4855 194.602V192.982H63.5835ZM59.5335 201.154C60.4695 201.154 61.1955 200.83 61.7115 200.182C62.2275 199.534 62.4855 198.622 62.4855 197.446C62.4855 196.258 62.2275 195.34 61.7115 194.692C61.1955 194.044 60.4635 193.72 59.5155 193.72C58.5675 193.72 57.8295 194.056 57.3015 194.728C56.7735 195.388 56.5095 196.306 56.5095 197.482C56.5095 198.646 56.7735 199.552 57.3015 200.2C57.8295 200.836 58.5735 201.154 59.5335 201.154Z" fill="white"/>
<path d="M13.26 38H10.54L8.72 33.26C8.56 32.82 8.31333 32.5133 7.98 32.34C7.64667 32.1667 7.21333 32.08 6.68 32.08H4.1V38H1.54V23.76H7.64C9.25333 23.76 10.48 24.1133 11.32 24.82C12.16 25.5267 12.58 26.54 12.58 27.86C12.58 28.8067 12.3267 29.6133 11.82 30.28C11.3267 30.9333 10.62 31.4 9.7 31.68C10.54 31.8533 11.1467 32.44 11.52 33.44L13.26 38ZM7.28 30.08C8.25333 30.08 8.97333 29.9 9.44 29.54C9.90667 29.18 10.14 28.6333 10.14 27.9C10.14 27.18 9.90667 26.6467 9.44 26.3C8.98667 25.94 8.26667 25.76 7.28 25.76H4.06V30.08H7.28ZM24.243 33.08H17.283C17.3363 34.16 17.603 34.96 18.083 35.48C18.5763 35.9867 19.303 36.24 20.263 36.24C21.3696 36.24 22.3963 35.88 23.343 35.16L24.063 36.88C23.583 37.2667 22.9896 37.58 22.283 37.82C21.5896 38.0467 20.883 38.16 20.163 38.16C18.5096 38.16 17.2096 37.6933 16.263 36.76C15.3163 35.8267 14.843 34.5467 14.843 32.92C14.843 31.8933 15.0496 30.98 15.463 30.18C15.8763 29.38 16.4563 28.76 17.203 28.32C17.9496 27.8667 18.7963 27.64 19.743 27.64C21.1296 27.64 22.223 28.0933 23.023 29C23.8363 29.8933 24.243 31.1267 24.243 32.7V33.08ZM19.803 29.44C19.1363 29.44 18.5896 29.64 18.163 30.04C17.7496 30.4267 17.483 30.9933 17.363 31.74H22.063C21.983 30.98 21.7496 30.4067 21.363 30.02C20.9896 29.6333 20.4696 29.44 19.803 29.44ZM36.12 27.9V37.68C36.12 39.2533 35.6867 40.4467 34.82 41.26C33.9533 42.0733 32.68 42.48 31 42.48C29.44 42.48 28.0667 42.1533 26.88 41.5L27.28 39.6C28.5067 40.24 29.7267 40.56 30.94 40.56C32.74 40.56 33.64 39.6667 33.64 37.88V35.88C33.3333 36.4267 32.8867 36.8733 32.3 37.22C31.7133 37.5533 31.0533 37.72 30.32 37.72C29.44 37.72 28.6533 37.5133 27.96 37.1C27.28 36.6733 26.7467 36.08 26.36 35.32C25.9867 34.5467 25.8 33.6667 25.8 32.68C25.8 31.6933 25.9867 30.82 26.36 30.06C26.7467 29.2867 27.28 28.6933 27.96 28.28C28.6533 27.8533 29.44 27.64 30.32 27.64C31.0667 27.64 31.7267 27.8 32.3 28.12C32.8867 28.4267 33.3333 28.86 33.64 29.42V27.9H36.12ZM30.98 35.76C31.8067 35.76 32.4533 35.4867 32.92 34.94C33.4 34.3933 33.64 33.64 33.64 32.68C33.64 31.72 33.4067 30.9667 32.94 30.42C32.4733 29.8733 31.82 29.6 30.98 29.6C30.1533 29.6 29.5 29.8733 29.02 30.42C28.5533 30.9667 28.32 31.72 28.32 32.68C28.32 33.64 28.5533 34.3933 29.02 34.94C29.5 35.4867 30.1533 35.76 30.98 35.76ZM38.8209 27.9H41.3009V38H38.8209V27.9ZM41.4409 23.32V25.78H38.6609V23.32H41.4409ZM48.6158 38.16C47.5891 38.16 46.6824 37.9467 45.8958 37.52C45.1224 37.0933 44.5224 36.4867 44.0958 35.7C43.6824 34.9 43.4758 33.9667 43.4758 32.9C43.4758 31.8333 43.6824 30.9067 44.0958 30.12C44.5224 29.32 45.1224 28.7067 45.8958 28.28C46.6824 27.8533 47.5891 27.64 48.6158 27.64C49.6291 27.64 50.5224 27.8533 51.2958 28.28C52.0691 28.7067 52.6624 29.32 53.0758 30.12C53.5024 30.9067 53.7158 31.8333 53.7158 32.9C53.7158 33.9667 53.5024 34.9 53.0758 35.7C52.6624 36.4867 52.0691 37.0933 51.2958 37.52C50.5224 37.9467 49.6291 38.16 48.6158 38.16ZM48.5958 36.2C49.4491 36.2 50.0958 35.9267 50.5358 35.38C50.9891 34.82 51.2158 33.9933 51.2158 32.9C51.2158 31.82 50.9891 31 50.5358 30.44C50.0824 29.8667 49.4424 29.58 48.6158 29.58C47.7758 29.58 47.1291 29.8667 46.6758 30.44C46.2224 31 45.9958 31.82 45.9958 32.9C45.9958 33.9933 46.2158 34.82 46.6558 35.38C47.1091 35.9267 47.7558 36.2 48.5958 36.2ZM61.6517 27.64C64.0651 27.64 65.2717 29.0267 65.2717 31.8V38H62.7717V31.92C62.7717 31.12 62.6184 30.54 62.3117 30.18C62.0051 29.8067 61.5317 29.62 60.8917 29.62C60.1317 29.62 59.5184 29.8667 59.0517 30.36C58.5851 30.84 58.3517 31.48 58.3517 32.28V38H55.8717V30.76C55.8717 29.6933 55.8184 28.74 55.7117 27.9H58.0517L58.2317 29.56C58.5784 28.9467 59.0451 28.4733 59.6317 28.14C60.2317 27.8067 60.9051 27.64 61.6517 27.64Z" fill="white"/>
</svg>
